<?xml version="1.0" encoding="UTF-8" standalone="no"?>
<svg
   xmlns:svg="http://www.w3.org/2000/svg"
   xmlns="http://www.w3.org/2000/svg"
   width="100"
   height="100"
   viewBox="0 0 100 100"
   id="svg2"
   version="1.1">
  <defs
     id="defs10" />
  <path
     id="path4138"
     d="M 50,0 C 22.385763,0 0,22.385763 0,50 l 0,50 100,0 0,-50 C 100,22.385763 77.614237,0 50,0 Z"
     style="fill:#f4f4f4;" />
  <path
     id="path4145"
     d="m 25,50.00004 c 1.7e-5,4.1421 -1,5 -7.500011,5 C 11,55.00004 10,54.00004 10,47.50002 10,43.35789 10.85787,40 15,40 c 4.14213,0 10.000001,5.85787 10,10.00004 z"
     style="fill:#000000;" />
  <path
     id="path4162"
     d="m 50.013672,60.5 c -0.513528,-0.0027 -1.015436,0.15277 -1.4375,0.445312 l -13,9 c -1.782589,1.236542 -1.25229,4.001073 0.861328,4.490235 l 13,3 c 0.370131,0.08546 0.754869,0.08546 1.125,0 l 13,-3 c 2.113618,-0.489162 2.643917,-3.253693 0.861328,-4.490235 l -13,-9 C 51.00943,60.658082 50.517873,60.502853 50.013672,60.5 Z"
     style="fill:#000000;" />
  <path
     style="fill:#000000;"
     d="m 75,50.00004 c -1.7e-5,4.1421 1,5 7.500011,5 C 89,55.00004 90,54.00004 90,47.50006 90,43.35789 89.14213,40 85,40 80.85787,40 74.999999,45.85786 75,50.00004 Z"
     id="path4165" />
</svg>
